<?xml version="1.0" encoding="UTF-8"?>
<svg width="12px" height="12px" viewBox="2 2 12 12" version="1.1" xmlns="http://www.w3.org/2000/svg">
  <path d="M8,7.29289322 L12.6464466,2.64644661 C12.8417088,2.45118446 13.1582912,2.45118446 13.3535534,2.64644661 C13.5488155,2.84170876 13.5488155,3.15829124 13.3535534,3.35355339 L8.70710678,8 L13.3535534,12.6464466 C13.5488155,12.8417088 13.5488155,13.1582912 13.3535534,13.3535534 C13.1582912,13.5488155 12.8417088,13.5488155 12.6464466,13.3535534 L8,8.70710678 L3.35355339,13.3535534 C3.15829124,13.5488155 2.84170876,13.5488155 2.64644661,13.3535534 C2.45118446,13.1582912 2.45118446,12.8417088 2.64644661,12.6464466 L7.29289322,8 L2.64644661,3.35355339 C2.45118446,3.15829124 2.45118446,2.84170876 2.64644661,2.64644661 C2.84170876,2.45118446 3.15829124,2.45118446 3.35355339,2.64644661 L8,7.29289322 Z" />
 </svg>
